<svg xmlns="http://www.w3.org/2000/svg" viewBox="0 0 175.33 32"><path fill="#fff" d="M43.7 25.96a5.598 5.598 0 0 1-2.28-2.39c-.53-1.04-.8-2.27-.8-3.69v-5.09c0-1.43.27-2.65.8-3.69s1.3-1.84 2.28-2.4 2.16-.84 3.51-.84c1.12 0 2.13.24 3.03.71s1.66 1.17 2.26 2.06 1.01 1.96 1.23 3.19h-3.14c-.15-.6-.4-1.12-.73-1.56s-.73-.79-1.18-1.03c-.46-.24-.95-.36-1.47-.36-.71 0-1.32.16-1.83.48s-.91.77-1.19 1.36c-.28.59-.43 1.28-.43 2.08v5.08c0 .8.14 1.49.43 2.08.28.59.68 1.04 1.19 1.36s1.12.47 1.83.47c.53 0 1.04-.12 1.49-.34.46-.23.85-.57 1.18-1.01.33-.45.57-.97.71-1.6h3.14c-.23 1.23-.64 2.29-1.25 3.19s-1.36 1.58-2.26 2.06-1.91.71-3.02.71c-1.34 0-2.51-.28-3.5-.84zm14.28.16a4.437 4.437 0 0 1-1.91-1.97c-.44-.86-.66-1.91-.66-3.13v-2.16c0-1.2.22-2.23.66-3.09s1.08-1.51 1.91-1.95c.84-.45 1.84-.67 3.02-.67s2.18.23 3.02.67 1.48 1.1 1.91 1.95c.44.86.66 1.89.66 3.09v2.19c0 1.21-.22 2.24-.66 3.1s-1.08 1.51-1.91 1.96c-.84.45-1.84.68-3.02.68s-2.18-.23-3.02-.67zm4.9-2.99c.44-.49.67-1.18.67-2.08v-2.19c0-.88-.22-1.57-.67-2.06s-1.07-.73-1.88-.73-1.43.24-1.88.73-.67 1.17-.67 2.06v2.19c0 .89.22 1.58.66 2.08s1.07.73 1.89.73 1.43-.24 1.88-.73zm9.08-.42c0 .32.08.58.24.75s.39.26.69.26h.91v2.93h-1.66c-1.02 0-1.82-.31-2.39-.92s-.85-1.47-.85-2.59V8.03h3.05v14.68h.01zm7.57 0c0 .32.08.58.24.75s.39.26.69.26h.91v2.93h-1.66c-1.02 0-1.82-.31-2.39-.92s-.85-1.47-.85-2.59V8.03h3.05v14.68h.01zm6.87 3.4c-.88-.46-1.56-1.13-2.03-2.02s-.7-1.97-.7-3.22v-1.49c0-1.31.23-2.43.67-3.36s1.1-1.63 1.95-2.12 1.89-.73 3.09-.73c1.13 0 2.1.28 2.91.85s1.42 1.39 1.84 2.46c.43 1.08.63 2.37.63 3.88v.87h-9.01v-2.25h6.17v-.14c-.1-.93-.36-1.65-.8-2.16-.43-.51-1.01-.77-1.75-.77-.92 0-1.63.29-2.13.86s-.75 1.39-.75 2.45v1.69c0 1.01.27 1.78.82 2.32.54.54 1.31.81 2.3.81.5 0 1-.1 1.49-.29s.93-.46 1.32-.8l2 1.87c-.67.63-1.43 1.12-2.27 1.46s-1.69.51-2.54.51c-1.25 0-2.32-.23-3.2-.69zm12.92.06c-.68-.44-1.19-1.08-1.55-1.91s-.53-1.83-.53-3.01v-2.53c0-1.17.17-2.18.52-3.02s.86-1.47 1.53-1.92 1.47-.66 2.41-.66c.75 0 1.43.21 2.05.62s1.11 1.01 1.49 1.76l-.27 2.82c0-.51-.09-.95-.27-1.3s-.44-.63-.78-.82-.75-.28-1.24-.28c-.76 0-1.34.25-1.76.74s-.62 1.19-.62 2.07v2.5c0 .88.21 1.56.62 2.04s1.01.72 1.76.72c.49 0 .9-.1 1.24-.29s.6-.47.78-.82.27-.79.27-1.29l.18 2.91c-.26.69-.69 1.25-1.27 1.67s-1.29.63-2.11.63c-.96.01-1.78-.21-2.45-.64zm.13 5.29c-.81-.37-1.44-.89-1.89-1.56l2.06-1.88a3.258 3.258 0 0 0 2.55 1.24c.87 0 1.56-.24 2.06-.71s.75-1.14.75-2v-13.2h3.05v12.86c0 1.22-.23 2.26-.69 3.13-.45.87-1.12 1.53-2 1.98-.87.45-1.92.68-3.15.68-1.01 0-1.93-.19-2.74-.56zm14.4-5.35c-.88-.46-1.56-1.13-2.03-2.02s-.7-1.97-.7-3.22v-1.49c0-1.31.23-2.43.67-3.36s1.1-1.63 1.95-2.12 1.89-.73 3.09-.73c1.13 0 2.1.28 2.91.85s1.42 1.39 1.84 2.46c.43 1.08.63 2.37.63 3.88v.87h-9.01v-2.25h6.17v-.14c-.1-.93-.36-1.65-.8-2.16-.43-.51-1.01-.77-1.75-.77-.92 0-1.63.29-2.13.86s-.75 1.39-.75 2.45v1.69c0 1.01.27 1.78.82 2.32.54.54 1.31.81 2.3.81.5 0 1-.1 1.49-.29s.93-.46 1.32-.8l2 1.87c-.67.63-1.43 1.12-2.27 1.46s-1.69.51-2.54.51c-1.25 0-2.32-.23-3.2-.69zM130.3 8.94h3.05v18.57h-3.05V8.94zm1.76 15.65h4.33c1.26 0 2.24-.32 2.93-.95.69-.63 1.04-1.52 1.04-2.68v-5.47c0-1.16-.35-2.05-1.04-2.68-.69-.63-1.67-.95-2.93-.95h-4.33V8.93h4.26c1.52 0 2.81.26 3.89.78s1.9 1.28 2.46 2.28c.56.99.84 2.19.84 3.6v5.27c0 1.37-.27 2.56-.83 3.55s-1.37 1.76-2.45 2.3-2.39.8-3.93.8h-4.24v-2.92zm19.6-15.65h2.22l6.97 18.57h-3.28l-4.81-13.84-4.81 13.84h-3.28l6.99-18.57zm-3.69 12.13h9.77V24h-9.78v-2.93h.01zm17.21 5.79c-1.01-.57-1.78-1.36-2.34-2.4s-.83-2.24-.83-3.6v-5.27c0-1.36.27-2.56.83-3.6s1.33-1.84 2.34-2.4c1.01-.57 2.17-.85 3.49-.85s2.48.28 3.49.85c1 .57 1.78 1.36 2.34 2.4s.83 2.24.83 3.6v5.27c0 1.36-.27 2.56-.83 3.6s-1.33 1.84-2.34 2.4c-1.01.57-2.17.85-3.49.85s-2.49-.29-3.49-.85zm5.33-2.64c.53-.31.95-.74 1.23-1.31s.43-1.22.43-1.96v-5.44c0-.74-.14-1.39-.43-1.96s-.7-1-1.23-1.31-1.15-.46-1.84-.46-1.32.15-1.84.46c-.53.31-.95.74-1.23 1.31s-.43 1.22-.43 1.96v5.44c0 .74.14 1.39.43 1.96s.7 1 1.23 1.31 1.15.46 1.84.46 1.31-.15 1.84-.46zM.04 0H32.4v3.63H.04zm11.45 24.77C5.09 19.21 4.06 8.91 4.06 8.91h7.56v6.03h3.63V5.2H0c.32 7.01 2.41 12.4 2.41 12.4 3.87 10.62 13.05 14.35 13.05 14.35V19.13h-3.98v5.64zM32.4 5.19H16.82v26.77C32.53 25.2 32.4 5.19 32.4 5.19zM20.69 24.77V9.03h7.47c-1.47 11.53-7.47 15.74-7.47 15.74z"/></svg>